<svg width="15" height="48" viewBox="0 0 15 48" fill="none" xmlns="http://www.w3.org/2000/svg">
<g clip-path="url(#clip0_640_17623)">
<path d="M7.5 16.4469C6.01664 16.4469 4.5666 16.8898 3.33323 17.7197C2.09986 18.5496 1.13856 19.7291 0.570907 21.1091C0.00324965 22.4891 -0.145275 24.0077 0.144114 25.4727C0.433503 26.9377 1.14781 28.2834 2.1967 29.3396C3.2456 30.3958 4.58197 31.1151 6.03683 31.4065C7.49168 31.6979 8.99968 31.5484 10.3701 30.9768C11.7406 30.4051 12.9119 29.4371 13.736 28.1952C14.5601 26.9532 15 25.493 15 23.9993C14.9977 21.997 14.2068 20.0773 12.8008 18.6615C11.3948 17.2456 9.48843 16.4492 7.5 16.4469ZM7.5 28.7321C6.57043 28.7321 5.66173 28.4545 4.88882 27.9345C4.11591 27.4144 3.5135 26.6753 3.15777 25.8105C2.80204 24.9456 2.70896 23.994 2.89031 23.076C3.07166 22.1579 3.51929 21.3146 4.1766 20.6527C4.83391 19.9908 5.67137 19.54 6.58308 19.3574C7.49479 19.1748 8.4398 19.2685 9.29862 19.6267C10.1574 19.9849 10.8915 20.5916 11.4079 21.3699C11.9244 22.1482 12.2 23.0632 12.2 23.9993C12.1962 25.2533 11.6998 26.4549 10.8192 27.3417C9.93864 28.2285 8.74536 28.7283 7.5 28.7321ZM7.5 32.8953C6.01664 32.8953 4.5666 33.3382 3.33323 34.1681C2.09986 34.9979 1.13856 36.1774 0.570907 37.5575C0.00324965 38.9375 -0.145275 40.456 0.144114 41.921C0.433503 43.386 1.14781 44.7317 2.1967 45.788C3.2456 46.8442 4.58197 47.5635 6.03683 47.8549C7.49168 48.1463 8.99968 47.9967 10.3701 47.4251C11.7406 46.8535 12.9119 45.8855 13.736 44.6435C14.5601 43.4015 15 41.9413 15 40.4476C14.9977 38.4453 14.2068 36.5257 12.8008 35.1098C11.3948 33.694 9.48843 32.8975 7.5 32.8953ZM7.5 45.1805C6.57043 45.1805 5.66173 44.9029 4.88882 44.3828C4.11591 43.8628 3.5135 43.1236 3.15777 42.2588C2.80204 41.394 2.70896 40.4424 2.89031 39.5243C3.07166 38.6062 3.51929 37.7629 4.1766 37.101C4.83391 36.4391 5.67137 35.9884 6.58308 35.8057C7.49479 35.6231 8.4398 35.7169 9.29862 36.0751C10.1574 36.4333 10.8915 37.0399 11.4079 37.8182C11.9244 38.5965 12.2 39.5116 12.2 40.4476C12.1962 41.7017 11.6998 42.9033 10.8192 43.79C9.93864 44.6768 8.74536 45.1767 7.5 45.1805ZM7.5 0C6.01664 0 4.5666 0.442939 3.33323 1.2728C2.09986 2.10267 1.13856 3.28219 0.570907 4.6622C0.00324965 6.04222 -0.145275 7.56075 0.144114 9.02577C0.433503 10.4908 1.14781 11.8365 2.1967 12.8927C3.2456 13.9489 4.58197 14.6682 6.03683 14.9596C7.49168 15.251 8.99968 15.1015 10.3701 14.5299C11.7406 13.9582 12.9119 12.9902 13.736 11.7482C14.5601 10.5063 15 9.04609 15 7.55237C14.9977 5.55006 14.2068 3.63041 12.8008 2.21456C11.3948 0.798712 9.48843 0.00228444 7.5 0V0ZM7.5 12.2852C6.57043 12.2852 5.66173 12.0076 4.88882 11.4876C4.11591 10.9675 3.5135 10.2284 3.15777 9.36354C2.80204 8.49873 2.70896 7.54712 2.89031 6.62904C3.07166 5.71097 3.51929 4.86766 4.1766 4.20576C4.83391 3.54387 5.67137 3.09311 6.58308 2.91049C7.49479 2.72788 8.4398 2.8216 9.29862 3.17982C10.1574 3.53803 10.8915 4.14465 11.4079 4.92296C11.9244 5.70127 12.2 6.61631 12.2 7.55237C12.1962 8.80643 11.6998 10.008 10.8192 10.8948C9.93864 11.7815 8.74536 12.2814 7.5 12.2852Z" fill="black"/>
</g>
<defs>
<clipPath id="clip0_640_17623">
<rect width="15" height="48" fill="white"/>
</clipPath>
</defs>
</svg>
