<svg width="24" height="24" viewBox="0 0 24 24" fill="none" xmlns="http://www.w3.org/2000/svg">
<path fill-rule="evenodd" clip-rule="evenodd" d="M10.7371 19.0746C12.0571 19.0746 13.1871 20.1626 13.1871 21.5696C13.1871 22.9126 12.0571 24.0006 10.7371 24.0006C9.41805 24.0006 8.28705 22.9126 8.28705 21.5696C8.28705 20.1626 9.41805 19.0746 10.7371 19.0746ZM18.3371 19.0746C19.6571 19.0746 20.7871 20.1626 20.7871 21.5696C20.7871 22.9126 19.6571 24.0006 18.3371 24.0006C17.0181 24.0006 15.8871 22.9126 15.8871 21.5696C15.8871 20.1626 17.0181 19.0746 18.3371 19.0746ZM10.7371 20.3546C10.0471 20.3546 9.54405 20.8656 9.54405 21.5696C9.54405 22.2096 10.0461 22.7216 10.7371 22.7216C11.3651 22.7216 11.9311 22.2096 11.9311 21.5696C11.9311 20.8656 11.3651 20.3536 10.7371 20.3536V20.3546ZM18.3371 20.3546C17.7091 20.3546 17.1441 20.8656 17.1441 21.5696C17.1441 22.2096 17.7091 22.7216 18.3371 22.7216C18.9651 22.7216 19.5311 22.2096 19.5311 21.5696C19.5311 20.8656 18.9651 20.3536 18.3371 20.3536V20.3546ZM0.687052 0.00855131L4.89605 0.968551C5.14705 1.03255 5.27305 1.16055 5.33605 1.41655L6.34005 6.27955H23.4881C23.8021 6.27955 24.0531 6.59955 23.9901 6.98355L21.6661 15.4276C21.6031 15.6836 21.4161 15.8116 21.1641 15.8116H8.28805L8.53805 17.2196H20.9751C21.6661 17.2196 21.6661 18.4996 20.9751 18.4996H7.97405C7.84396 18.4955 7.71864 18.4497 7.61667 18.3688C7.51471 18.2879 7.44155 18.1763 7.40805 18.0506L4.20505 2.12055L0.436052 1.29055C-0.316948 1.09755 -0.00394756 -0.119449 0.687052 0.00955131V0.00855131ZM22.5461 7.55855H6.59205L7.97405 14.5316H20.6601L22.5451 7.55755L22.5461 7.55855Z" fill="white"/>
</svg>
